<svg width="12.958in" height="8.597in" viewBox="0 0 12.958 8.597" xmlns="http://www.w3.org/2000/svg" version="1.1" preserveAspectRatio="xMidYMid meet"><g id="svgGroup" stroke-linecap="round" fill-rule="evenodd" font-size="9pt" stroke="#000" stroke-width="0.25mm" fill="none" style="stroke:#000;stroke-width:0.25mm;fill:none"><path d="M 0 4.361 L 0 5.933 L 0.118 5.933 L 0.118 7.025 L 0 7.025 L 0 8.116 L 0 8.597 L 1.572 8.597 L 1.572 8.479 L 2.664 8.479 L 2.664 8.597 L 3.755 8.597 L 4.236 8.597 L 4.236 7.025 L 4.118 7.025 L 4.118 5.933 L 4.236 5.933 L 4.236 4.842 L 4.236 4.361 L 2.664 4.361 L 2.664 4.479 L 1.572 4.479 L 1.572 4.361 L 0.481 4.361 L 0 4.361 Z" id="front_outsideCutPath" stroke="#FF0000" stroke-width="0.1" style="stroke:#FF0000;stroke-width:0.1" vector-effect="non-scaling-stroke"/><path d="M 4.479 4.361 L 4.479 5.933 L 4.361 5.933 L 4.361 7.025 L 4.479 7.025 L 4.479 8.116 L 4.479 8.597 L 5.933 8.597 L 5.933 8.479 L 7.025 8.479 L 7.025 8.597 L 8.116 8.597 L 8.479 8.597 L 8.479 7.025 L 8.597 7.025 L 8.597 5.933 L 8.479 5.933 L 8.479 4.842 L 8.479 4.361 L 7.025 4.361 L 7.025 4.479 L 5.933 4.479 L 5.933 4.361 L 4.842 4.361 L 4.479 4.361 Z" id="left_outsideCutPath" stroke="#FF0000" stroke-width="0.1" style="stroke:#FF0000;stroke-width:0.1" vector-effect="non-scaling-stroke"/><path d="M 8.84 4.479 L 8.84 5.933 L 8.722 5.933 L 8.722 7.025 L 8.84 7.025 L 8.84 8.116 L 8.84 8.479 L 10.294 8.479 L 10.294 8.597 L 11.386 8.597 L 11.386 8.479 L 12.477 8.479 L 12.84 8.479 L 12.84 7.025 L 12.958 7.025 L 12.958 5.933 L 12.84 5.933 L 12.84 4.842 L 12.84 4.479 L 11.386 4.479 L 11.386 4.361 L 10.294 4.361 L 10.294 4.479 L 9.203 4.479 L 8.84 4.479 Z" id="top_outsideCutPath" stroke="#FF0000" stroke-width="0.1" style="stroke:#FF0000;stroke-width:0.1" vector-effect="non-scaling-stroke"/><path d="M 0 0 L 0 1.572 L 0.118 1.572 L 0.118 2.664 L 0 2.664 L 0 3.755 L 0 4.236 L 1.572 4.236 L 1.572 4.118 L 2.664 4.118 L 2.664 4.236 L 3.755 4.236 L 4.236 4.236 L 4.236 2.664 L 4.118 2.664 L 4.118 1.572 L 4.236 1.572 L 4.236 0.481 L 4.236 0 L 2.664 0 L 2.664 0.118 L 1.572 0.118 L 1.572 0 L 0.481 0 L 0 0 Z" id="back_outsideCutPath" stroke="#FF0000" stroke-width="0.1" style="stroke:#FF0000;stroke-width:0.1" vector-effect="non-scaling-stroke"/><path d="M 4.479 0 L 4.479 1.572 L 4.361 1.572 L 4.361 2.664 L 4.479 2.664 L 4.479 3.755 L 4.479 4.236 L 5.933 4.236 L 5.933 4.118 L 7.025 4.118 L 7.025 4.236 L 8.116 4.236 L 8.479 4.236 L 8.479 2.664 L 8.597 2.664 L 8.597 1.572 L 8.479 1.572 L 8.479 0.481 L 8.479 0 L 7.025 0 L 7.025 0.118 L 5.933 0.118 L 5.933 0 L 4.842 0 L 4.479 0 Z" id="right_outsideCutPath" stroke="#FF0000" stroke-width="0.1" style="stroke:#FF0000;stroke-width:0.1" vector-effect="non-scaling-stroke"/><path d="M 8.84 0.118 L 8.84 1.572 L 8.722 1.572 L 8.722 2.664 L 8.84 2.664 L 8.84 3.755 L 8.84 4.118 L 10.294 4.118 L 10.294 4.236 L 11.386 4.236 L 11.386 4.118 L 12.477 4.118 L 12.84 4.118 L 12.84 2.664 L 12.958 2.664 L 12.958 1.572 L 12.84 1.572 L 12.84 0.481 L 12.84 0.118 L 11.386 0.118 L 11.386 0 L 10.294 0 L 10.294 0.118 L 9.203 0.118 L 8.84 0.118 Z" id="bottom_outsideCutPath" stroke="#FF0000" stroke-width="0.1" style="stroke:#FF0000;stroke-width:0.1" vector-effect="non-scaling-stroke"/></g></svg>